 http://www.imdb.com/title/tt0970926/

Genre: Comedy

Plot: A man finally finds faith in himself after the rest of world puts its faith in him; the sole being on earth who can save mankind from its own destruction - The Chosen One.

Cast:
Steve Buscemi ... Neal
Rob Schneider ... Paul
Holland Taylor ... Ruth
Peter Riegert ... Bob
Brandon Molale ... Cop #1
Marcus Giamatti ... Freddy
Samantha Smith ... Christine
Carolina Gómez ... Marissa
Jack McGee ... Produce Manager
George Dzundza ... Norman
Mary Griffin ... Kendra
Sanny Van Heteren ... Waitress
Kerri Randles ... Lily
Buddy Lewis ... NY Doorman
Pamela Guest ... Bird Lady
Kent Shocknek ... Newscaster
Michael Yama ... Mr. Nakamuri
Ian Fisher ... NY Cabbie
Tom Jacobson ... NY Protestor
Matt Farley ... NY Firefighter
Cletus Young ... Arcade Manager
Allen Nalasco ... NY Cop #2
Todd Carroll ... NY Cop #1
Mark Thompson ... NY Newscaster

Screens
 
http://www.imagebam.com/image/bf02be97576870

File Name

The Chosen One 2010 680p BRRip H264.mp4

File Size
Format : MPEG-4
Format profile : Base Media
Codec ID : isom
File size : 1.94 GiB
Duration : 1h 40mn
Overall bit rate : 2 751 Kbps

Video
ID : 1
Format : AVC
Format/Info : Advanced Video Codec
Format profile : High@L4.1
Format settings, CABAC : Yes
Format settings, ReFrames : 3 frames
Codec ID : avc1
Codec ID/Info : Advanced Video Coding
Duration : 1h 40mn
Bit rate mode : Variable
Bit rate : 2 299 Kbps
Maximum bit rate : 8 766 Kbps
Width : 1 280 pixels
Height : 680 pixels
Display aspect ratio : 1.882
Frame rate mode : Constant
Frame rate : 23.976 fps
Resolution : 24 bits
Colorimetry : 4:2:0
Scan type : Progressive
Bits/(Pixel*Frame) : 0.110
Stream size : 1.62 GiB (84%)

Audio #1
ID : 2
Format : AAC
Format/Info : Advanced Audio Codec
Format version : Version 4
Format profile : LC
Format settings, SBR : No
Codec ID : 40
Duration : 1h 40mn
Bit rate mode : Variable
Bit rate : 128 Kbps
Maximum bit rate : 137 Kbps
Channel(s) : 2 channels
Channel positions : L R
Sampling rate : 48.0 KHz
Resolution : 16 bits
Stream size : 92.3 MiB (5%)

Audio #2
ID : 3
Format : AAC
Format/Info : Advanced Audio Codec
Format version : Version 4
Format profile : LC
Format settings, SBR : No
Codec ID : 40
Duration : 1h 40mn
Bit rate mode : Variable
Bit rate : 320 Kbps
Maximum bit rate : 343 Kbps
Channel(s) : 6 channels
Channel positions : Front: L C R, Rear: L R, LFE
Sampling rate : 48.0 KHz
Resolution : 16 bits
Stream size : 231 MiB (12%)

English SRT : ----

Language : English